<?xml version="1.0" standalone="no"?>
<!DOCTYPE svg PUBLIC "-//W3C//DTD SVG 20010904//EN"
 "http://www.w3.org/TR/2001/REC-SVG-20010904/DTD/svg10.dtd">
<svg version="1.0" xmlns="http://www.w3.org/2000/svg"
 width="200.000000pt" height="200.000000pt" viewBox="0 0 200.000000 200.000000"
 preserveAspectRatio="xMidYMid meet">
<metadata>
Created by potrace 1.14, written by Peter Selinger 2001-2017
</metadata>
<g transform="translate(0.000000,200.000000) scale(0.100000,-0.100000)"
fill="#000000" stroke="none">
<path d="M0 1000 l0 -1000 1000 0 1000 0 0 1000 0 1000 -1000 0 -1000 0 0
-1000z m968 553 c49 -87 104 -192 123 -233 18 -41 34 -76 35 -78 1 -2 29 11
63 27 l61 31 60 -30 c33 -17 60 -35 60 -40 0 -6 -16 -10 -36 -10 l-36 0 8 -62
c5 -35 8 -80 9 -102 l0 -38 -102 -55 c-93 -50 -105 -59 -122 -99 -11 -24 -23
-44 -27 -44 -4 0 -18 9 -30 21 -20 18 -44 22 -208 34 -103 7 -189 15 -193 18
-3 4 5 11 18 16 13 5 83 32 154 61 72 29 141 57 155 62 25 10 24 11 -53 82
l-78 72 -58 210 c-32 115 -61 219 -65 232 -11 35 11 27 84 -28 l65 -49 3 67
c2 66 7 92 16 92 2 0 45 -71 94 -157z m-325 -1168 c-7 -102 -11 -120 -25 -123
-15 -3 -18 4 -18 37 0 55 -27 58 -32 4 -2 -31 -7 -39 -25 -41 -29 -4 -29 -8 5
193 l28 160 34 5 35 5 3 -60 c1 -33 -1 -114 -5 -180z m293 189 c-3 -8 -14 -14
-23 -12 -15 2 -19 -6 -21 -46 -3 -41 -1 -48 12 -43 12 5 16 -1 16 -23 0 -23
-5 -30 -19 -30 -15 0 -20 -9 -23 -45 -3 -38 0 -45 15 -45 14 0 18 -6 15 -27
-2 -22 -10 -29 -41 -36 -21 -5 -40 -8 -42 -6 -6 7 33 341 41 349 5 5 23 10 39
12 31 3 43 -16 31 -48z m398 18 c3 -20 6 -54 6 -75 0 -23 4 -36 10 -32 6 3 10
21 10 38 0 61 12 107 28 107 12 0 14 -9 9 -47 -3 -27 -11 -104 -18 -173 -8
-89 -16 -129 -27 -137 -27 -22 -32 -15 -32 50 0 89 -16 104 -23 21 -3 -49 -10
-71 -23 -81 -10 -7 -19 -11 -21 -10 -2 3 24 277 33 342 6 47 40 45 48 -3z
m-974 4 c0 -14 -8 -32 -17 -41 -14 -15 -31 -128 -42 -287 -1 -5 -11 -8 -24 -8
l-22 0 14 142 c11 107 12 143 3 146 -7 2 -12 18 -12 35 0 31 1 32 50 34 47 3
50 1 50 -21z m140 3 c15 -27 4 -94 -22 -138 -19 -33 -19 -36 -2 -104 14 -58
15 -71 3 -78 -8 -5 -17 -9 -21 -9 -8 0 -9 6 -27 90 -7 37 -9 40 -10 15 -2 -60
-14 -104 -29 -110 -8 -3 -17 -3 -19 -1 -10 10 28 341 40 348 25 16 76 9 87
-13z m247 -106 l-5 -128 15 128 c15 117 18 127 37 127 l21 0 -24 -175 -25
-174 -29 -11 c-17 -5 -32 -10 -33 -10 -6 0 -4 135 3 258 5 102 8 112 26 112
18 0 19 -6 14 -127z m276 25 c-6 -57 -14 -122 -17 -145 -4 -34 -2 -43 9 -43
10 0 15 -10 15 -29 0 -25 -5 -30 -36 -36 -20 -3 -37 -5 -39 -3 -3 3 21 249 30
316 5 35 10 42 29 42 l22 0 -13 -102z m213 65 c-3 -21 -10 -83 -16 -138 -19
-182 -19 -185 -41 -185 -23 0 -23 -13 0 183 17 152 24 176 54 177 5 0 6 -17 3
-37z m398 21 c7 -18 8 -74 2 -74 -2 0 -11 -3 -20 -6 -12 -4 -16 0 -16 16 0 19
-2 20 -15 10 -21 -18 -19 -36 10 -78 43 -63 29 -183 -24 -212 -41 -22 -77 20
-60 70 10 29 13 30 29 15 16 -14 18 -14 31 1 12 14 9 24 -19 74 -44 80 -42
120 11 178 24 26 62 29 71 6z m106 9 c0 -5 -7 -55 -15 -113 -18 -133 -19 -181
-2 -177 6 1 13 -10 15 -24 3 -23 -1 -27 -34 -32 -21 -4 -40 -4 -43 -2 -5 6 28
336 35 347 7 10 44 10 44 1z"/>
<path d="M730 1616 c0 -9 110 -399 113 -403 2 -2 45 41 95 95 l91 99 -136 99
c-149 108 -163 117 -163 110z"/>
<path d="M1203 1262 c-33 -17 -46 -39 -17 -28 9 3 43 6 77 6 l62 0 -30 20
c-36 24 -50 24 -92 2z"/>
<path d="M1150 1195 c0 -3 14 -36 31 -74 31 -69 46 -81 105 -81 15 0 19 47 6
66 -8 13 -142 96 -142 89z"/>
<path d="M1013 1033 c-12 -2 -93 -33 -180 -68 l-158 -63 67 -7 c67 -7 68 -7
230 61 90 37 167 71 173 76 9 8 -91 9 -132 1z"/>
<path d="M1050 880 c-12 -7 -12 -12 -2 -22 10 -10 15 -10 22 2 5 8 10 18 10
23 0 10 -12 9 -30 -3z"/>
<path d="M596 490 c-4 -36 -10 -73 -12 -82 -3 -10 -1 -18 5 -18 11 0 24 92 19
135 -3 20 -6 9 -12 -35z"/>
<path d="M436 528 c-8 -33 -7 -48 4 -48 12 0 41 55 33 64 -13 13 -31 5 -37
-16z"/>
</g>
</svg>
